<svg width="20" height="20" viewBox="0 0 20 20" fill="none" xmlns="http://www.w3.org/2000/svg">
<path d="M3.70906 11.5902L9.5029 17.0329C9.64805 17.1692 9.72062 17.2374 9.79954 17.272C9.92743 17.328 10.0729 17.328 10.2008 17.272C10.2797 17.2374 10.3523 17.1692 10.4974 17.0329L16.2913 11.5902C17.9214 10.0588 18.1194 7.53883 16.7483 5.77172L16.4905 5.43945C14.8504 3.32548 11.5582 3.68001 10.4057 6.09471C10.2429 6.4358 9.7574 6.4358 9.59461 6.09471C8.44214 3.68001 5.14993 3.32548 3.50978 5.43945L3.25199 5.77172C1.88095 7.53883 2.07891 10.0588 3.70906 11.5902Z" stroke="#222222"/>
</svg>
