<svg width="24" height="16" viewBox="0 0 24 16" fill="none" xmlns="http://www.w3.org/2000/svg">
<path d="M0 1C0 0.447715 0.447715 0 1 0H24V16H1C0.447716 16 0 15.5523 0 15V1Z" fill="#EBB3C5"/>
<path d="M6.04335 7.9192H6.17295C6.29295 7.9192 6.37935 7.8816 6.43215 7.8064L7.21935 6.664C7.26575 6.6032 7.31535 6.5616 7.36815 6.5392C7.42255 6.5152 7.48975 6.5032 7.56975 6.5032H8.27535L7.23855 7.9168C7.16495 8.0144 7.08575 8.0848 7.00095 8.128C7.06175 8.1504 7.11695 8.1816 7.16655 8.2216C7.21615 8.2616 7.26255 8.3136 7.30575 8.3776L8.36175 10H7.63695C7.59055 10 7.55055 9.9968 7.51695 9.9904C7.48495 9.984 7.45695 9.9744 7.43295 9.9616C7.40895 9.9488 7.38815 9.9336 7.37055 9.916C7.35295 9.8968 7.33615 9.8752 7.32015 9.8512L6.52815 8.6344C6.49935 8.5896 6.46255 8.5584 6.41775 8.5408C6.37455 8.5216 6.31535 8.512 6.24015 8.512H6.04335V10H5.23215V6.5032H6.04335V7.9192ZM9.27881 6.4072V10H8.53481V6.4072H9.27881ZM11.0657 8.9872C10.9169 8.9936 10.7945 9.0064 10.6985 9.0256C10.6025 9.0448 10.5265 9.0688 10.4705 9.0976C10.4145 9.1264 10.3753 9.1592 10.3529 9.196C10.3321 9.2328 10.3217 9.2728 10.3217 9.316C10.3217 9.4008 10.3449 9.4608 10.3913 9.496C10.4377 9.5296 10.5057 9.5464 10.5953 9.5464C10.6913 9.5464 10.7753 9.5296 10.8473 9.496C10.9193 9.4624 10.9921 9.408 11.0657 9.3328V8.9872ZM9.72649 7.8568C9.87689 7.724 10.0433 7.6256 10.2257 7.5616C10.4097 7.496 10.6065 7.4632 10.8161 7.4632C10.9665 7.4632 11.1017 7.488 11.2217 7.5376C11.3433 7.5856 11.4457 7.6536 11.5289 7.7416C11.6137 7.828 11.6785 7.9312 11.7233 8.0512C11.7681 8.1712 11.7905 8.3024 11.7905 8.4448V10H11.4497C11.3793 10 11.3257 9.9904 11.2889 9.9712C11.2537 9.952 11.2241 9.912 11.2001 9.8512L11.1473 9.7144C11.0849 9.7672 11.0249 9.8136 10.9673 9.8536C10.9097 9.8936 10.8497 9.928 10.7873 9.9568C10.7265 9.984 10.6609 10.004 10.5905 10.0168C10.5217 10.0312 10.4449 10.0384 10.3601 10.0384C10.2465 10.0384 10.1433 10.024 10.0505 9.9952C9.95769 9.9648 9.87849 9.9208 9.81289 9.8632C9.74889 9.8056 9.69929 9.7344 9.66409 9.6496C9.62889 9.5632 9.61129 9.464 9.61129 9.352C9.61129 9.2624 9.63369 9.172 9.67849 9.0808C9.72329 8.988 9.80089 8.904 9.91129 8.8288C10.0217 8.752 10.1705 8.688 10.3577 8.6368C10.5449 8.5856 10.7809 8.5568 11.0657 8.5504V8.4448C11.0657 8.2992 11.0353 8.1944 10.9745 8.1304C10.9153 8.0648 10.8305 8.032 10.7201 8.032C10.6321 8.032 10.5601 8.0416 10.5041 8.0608C10.4481 8.08 10.3977 8.1016 10.3529 8.1256C10.3097 8.1496 10.2673 8.1712 10.2257 8.1904C10.1841 8.2096 10.1345 8.2192 10.0769 8.2192C10.0257 8.2192 9.98249 8.2064 9.94729 8.1808C9.91209 8.1552 9.88329 8.1248 9.86089 8.0896L9.72649 7.8568ZM12.9621 7.8952C13.0389 7.7608 13.1269 7.6552 13.2261 7.5784C13.3269 7.5016 13.4421 7.4632 13.5717 7.4632C13.6837 7.4632 13.7749 7.4896 13.8453 7.5424L13.7973 8.0896C13.7893 8.1248 13.7757 8.1488 13.7565 8.1616C13.7389 8.1744 13.7141 8.1808 13.6821 8.1808C13.6693 8.1808 13.6525 8.18 13.6317 8.1784C13.6109 8.1768 13.5893 8.1752 13.5669 8.1736C13.5445 8.1704 13.5213 8.168 13.4973 8.1664C13.4749 8.1632 13.4541 8.1616 13.4349 8.1616C13.3261 8.1616 13.2389 8.1904 13.1733 8.248C13.1093 8.3056 13.0549 8.3856 13.0101 8.488V10H12.2661V7.5112H12.7077C12.7445 7.5112 12.7749 7.5144 12.7989 7.5208C12.8245 7.5272 12.8453 7.5376 12.8613 7.552C12.8789 7.5648 12.8917 7.5824 12.8997 7.6048C12.9093 7.6272 12.9173 7.6544 12.9237 7.6864L12.9621 7.8952ZM14.7853 7.78C14.8333 7.7352 14.8829 7.6936 14.9341 7.6552C14.9853 7.6168 15.0397 7.5848 15.0973 7.5592C15.1565 7.532 15.2197 7.5112 15.2869 7.4968C15.3557 7.4808 15.4301 7.4728 15.5101 7.4728C15.6461 7.4728 15.7661 7.4968 15.8701 7.5448C15.9757 7.5912 16.0645 7.6568 16.1365 7.7416C16.2085 7.8248 16.2629 7.9248 16.2997 8.0416C16.3365 8.1568 16.3549 8.2824 16.3549 8.4184V10H15.6109V8.4184C15.6109 8.2968 15.5829 8.2024 15.5269 8.1352C15.4709 8.0664 15.3885 8.032 15.2797 8.032C15.1981 8.032 15.1213 8.0496 15.0493 8.0848C14.9789 8.1184 14.9101 8.1648 14.8429 8.224V10H14.0989V7.5112H14.5597C14.6525 7.5112 14.7133 7.5528 14.7421 7.636L14.7853 7.78ZM18.1204 8.9872C17.9716 8.9936 17.8492 9.0064 17.7532 9.0256C17.6572 9.0448 17.5812 9.0688 17.5252 9.0976C17.4692 9.1264 17.43 9.1592 17.4076 9.196C17.3868 9.2328 17.3764 9.2728 17.3764 9.316C17.3764 9.4008 17.3996 9.4608 17.446 9.496C17.4924 9.5296 17.5604 9.5464 17.65 9.5464C17.746 9.5464 17.83 9.5296 17.902 9.496C17.974 9.4624 18.0468 9.408 18.1204 9.3328V8.9872ZM16.7812 7.8568C16.9316 7.724 17.098 7.6256 17.2804 7.5616C17.4644 7.496 17.6612 7.4632 17.8708 7.4632C18.0212 7.4632 18.1564 7.488 18.2764 7.5376C18.398 7.5856 18.5004 7.6536 18.5836 7.7416C18.6684 7.828 18.7332 7.9312 18.778 8.0512C18.8228 8.1712 18.8452 8.3024 18.8452 8.4448V10H18.5044C18.434 10 18.3804 9.9904 18.3436 9.9712C18.3084 9.952 18.2788 9.912 18.2548 9.8512L18.202 9.7144C18.1396 9.7672 18.0796 9.8136 18.022 9.8536C17.9644 9.8936 17.9044 9.928 17.842 9.9568C17.7812 9.984 17.7156 10.004 17.6452 10.0168C17.5764 10.0312 17.4996 10.0384 17.4148 10.0384C17.3012 10.0384 17.198 10.024 17.1052 9.9952C17.0124 9.9648 16.9332 9.9208 16.8676 9.8632C16.8036 9.8056 16.754 9.7344 16.7188 9.6496C16.6836 9.5632 16.666 9.464 16.666 9.352C16.666 9.2624 16.6884 9.172 16.7332 9.0808C16.778 8.988 16.8556 8.904 16.966 8.8288C17.0764 8.752 17.2252 8.688 17.4124 8.6368C17.5996 8.5856 17.8356 8.5568 18.1204 8.5504V8.4448C18.1204 8.2992 18.09 8.1944 18.0292 8.1304C17.97 8.0648 17.8852 8.032 17.7748 8.032C17.6868 8.032 17.6148 8.0416 17.5588 8.0608C17.5028 8.08 17.4524 8.1016 17.4076 8.1256C17.3644 8.1496 17.322 8.1712 17.2804 8.1904C17.2388 8.2096 17.1892 8.2192 17.1316 8.2192C17.0804 8.2192 17.0372 8.2064 17.002 8.1808C16.9668 8.1552 16.938 8.1248 16.9156 8.0896L16.7812 7.8568ZM19.22 9.6232C19.22 9.5656 19.2304 9.512 19.2512 9.4624C19.2736 9.4128 19.3032 9.3696 19.34 9.3328C19.3784 9.296 19.4232 9.2672 19.4744 9.2464C19.5256 9.224 19.5816 9.2128 19.6424 9.2128C19.7016 9.2128 19.7568 9.224 19.808 9.2464C19.8592 9.2672 19.904 9.296 19.9424 9.3328C19.9808 9.3696 20.0104 9.4128 20.0312 9.4624C20.0536 9.512 20.0648 9.5656 20.0648 9.6232C20.0648 9.6808 20.0536 9.7352 20.0312 9.7864C20.0104 9.836 19.9808 9.8792 19.9424 9.916C19.904 9.9528 19.8592 9.9816 19.808 10.0024C19.7568 10.0232 19.7016 10.0336 19.6424 10.0336C19.5816 10.0336 19.5256 10.0232 19.4744 10.0024C19.4232 9.9816 19.3784 9.9528 19.34 9.916C19.3032 9.8792 19.2736 9.836 19.2512 9.7864C19.2304 9.7352 19.22 9.6808 19.22 9.6232Z" fill="black"/>
</svg>
