<svg width="24" height="24" viewBox="0 0 24 24" fill="none" xmlns="http://www.w3.org/2000/svg">
<path d="M4 8L3.64645 8.35355L3.29289 8L3.64645 7.64645L4 8ZM4 19.5C3.72386 19.5 3.5 19.2761 3.5 19C3.5 18.7239 3.72386 18.5 4 18.5L4 19L4 19.5ZM7 11L6.64645 11.3536L3.64645 8.35355L4 8L4.35355 7.64645L7.35355 10.6464L7 11ZM4 8L3.64645 7.64645L6.64645 4.64645L7 5L7.35355 5.35355L4.35355 8.35355L4 8ZM4 8L4 7.5L14.5 7.5L14.5 8L14.5 8.5L4 8.5L4 8ZM14.5 19L14.5 19.5L4 19.5L4 19L4 18.5L14.5 18.5L14.5 19ZM20 13.5L20.5 13.5C20.5 16.8137 17.8137 19.5 14.5 19.5L14.5 19L14.5 18.5C17.2614 18.5 19.5 16.2614 19.5 13.5L20 13.5ZM14.5 8L14.5 7.5C17.8137 7.5 20.5 10.1863 20.5 13.5L20 13.5L19.5 13.5C19.5 10.7386 17.2614 8.5 14.5 8.5L14.5 8Z" fill="black"/>
</svg>
