<?xml version="1.0" encoding="UTF-8"?>
<svg id="Layer_1" xmlns="http://www.w3.org/2000/svg" version="1.1" viewBox="0 0 1159 133.23">
  <!-- Generator: Adobe Illustrator 29.3.1, SVG Export Plug-In . SVG Version: 2.1.0 Build 151)  -->
  <defs>
    <style>
      .st0 {
        fill: #231f20;
      }
    </style>
  </defs>
  <path class="st0" d="M449.34,16.85c-11.28,0-58.3,3.94-58.3,54.62s47.1,53.96,58.3,53.94c11.2-.02,59.33-3.54,59.33-53.94s-48.06-54.62-59.33-54.62ZM450.15,114.76c-16.39,0-30.1-19.55-30.52-43.51-.42-23.97,12.61-43.51,29-43.51s30.1,19.55,30.52,43.51c.42,23.97-12.61,43.51-29,43.51Z"/>
  <path class="st0" d="M371.58,48.33c-.27-23.19-18.8-28.07-32.45-28.42h-71.33v102.5h26.4v-43.83h26.95l31.35,43.81h27.14l-33-47.11s24.94-6.6,24.94-26.95ZM346.37,48.92c.09,13.02-14.33,13.66-14.33,13.66h-37.84v-27.87h36.71c17.13,0,15.46,14.21,15.46,14.21Z"/>
  <polygon class="st0" points="241.05 34.71 241.03 20.47 155.22 20.47 155.22 122.41 240.84 122.41 240.84 107.74 182.53 107.74 182.53 79.14 226.91 79.14 226.91 61.35 182.53 61.35 182.62 34.71 241.05 34.71"/>
  <polygon class="st0" points="78.94 88.86 48.87 20.65 19.9 20.65 65.37 122.39 84.62 122.39 132.85 20.47 110.29 20.47 78.94 88.86"/>
  <path class="st0" d="M804.99,16.44c-11.28,0-58.3,3.94-58.3,54.62s47.1,53.96,58.3,53.95c11.21-.02,59.34-3.54,59.34-53.95s-48.06-54.62-59.34-54.62ZM805.8,114.34c-16.39,0-30.11-19.55-30.52-43.51-.42-23.97,12.61-43.51,29-43.51s30.11,19.55,30.52,43.51c.42,23.96-12.61,43.51-29,43.51Z"/>
  <polygon class="st0" points="671.18 20.65 648.62 81.52 629.19 20.47 593.62 20.47 565.2 122.39 588.85 122.39 610.3 43.94 636.52 122.39 656.51 122.39 687.13 43.94 712.07 122.39 736.09 122.39 704.18 20.65 671.18 20.65"/>
  <path class="st0" d="M1132.68,16.61c0-2.38-1.28-3.85-4.4-3.85h-5.32v13.75h1.65v-6.05h2.93l3.85,6.05h2.02l-4.22-6.05c1.83-.37,3.48-1.47,3.48-3.85ZM1127,19h-2.38v-4.77h3.12c1.65,0,3.3.55,3.3,2.38,0,2.38-2.02,2.38-4.03,2.38Z"/>
  <path class="st0" d="M1127.37,7.81c-6.78,0-11.92,5.13-11.92,11.92s5.13,11.73,11.92,11.73,11.73-5.13,11.73-11.73-5.13-11.92-11.73-11.92ZM1127.37,29.82c-5.87,0-10.09-4.4-10.09-10.08s4.22-10.27,10.09-10.27,9.9,4.58,9.9,10.27-4.22,10.08-9.9,10.08Z"/>
  <path class="st0" d="M950.58,19.92h-61.95s0,102.31,0,102.31h61.95c3.03,0,49.53-.12,49.53-49.26-.76-53.05-46.51-53.05-49.53-53.05ZM947.18,111.25h-31.75V31.48h27.67c18.5,0,27.4,17.05,27.4,39.72s-10.92,40.06-23.31,40.06Z"/>
  <path class="st0" d="M1049.6,19.98l-38.32,102.31h20.56l8.37-22.92,43.43.02,8.5,22.91h26.04l-37.77-102.31h-30.8ZM1045.77,83.17l15.77-45.66,16.5,45.66h-32.27Z"/>
</svg>