<svg width="45" height="45" viewBox="0 0 45 45" fill="none" xmlns="http://www.w3.org/2000/svg">
<path d="M22.5 5.625C31.8198 5.625 39.375 13.1802 39.375 22.5C39.375 31.8198 31.8198 39.375 22.5 39.375C13.1802 39.375 5.625 31.8198 5.625 22.5C5.625 13.1802 13.1802 5.625 22.5 5.625ZM18.2559 14.7529C16.76 14.0054 15.0002 15.0933 15 16.7656V28.2344C15 29.9069 16.7599 30.9948 18.2559 30.2471L30.3955 24.1777C31.7775 23.4868 31.7775 21.5142 30.3955 20.8232L18.2559 14.7529Z" fill="white"/>
<path d="M31.9611 21.6056L16.7367 13.9933C15.9388 13.5944 15 14.1746 15 15.0666V29.9334C15 30.8254 15.9388 31.4056 16.7367 31.0067L31.9611 23.3944C32.6982 23.0259 32.6982 21.9741 31.9611 21.6056Z" stroke="white" stroke-width="0.5" stroke-linecap="round" stroke-linejoin="round"/>
<circle cx="22.5" cy="22.5" r="16.875" stroke="white" stroke-width="0.5"/>
</svg>
